# xmcd
# Copyright (C) 1995-1998 Ti Kan
#
# Track frame offsets:
#       150
#       13545
#       29417
#       42237
#       58865
#       76435
#       92355
#       107155
#       132320
#       149252
#       163272
#       180120
#       197045
#       210937
#       226792
#       242562
#       258417
#       270397
#
# Disc length: 3797 seconds
#
# Revision: 0
# Processed by: cddbd v1.5.1PL0 Copyright (c) Steve Scherf et al.
# Submitted via: CD-Transfer v1.0
#
DISCID=e70ed312
DTITLE=Various Artist - 
DYEAR=91
DGENRE=
TTITLE0=Bee Gees    I.O.I.O.
TTITLE1=The Rubettes    Sugar Baby love
TTITLE2=Oliver Onions   Flying through the air
TTITLE3=McGuiness Flint    When I'm dead and gone
TTITLE4=Suzi Quattro    If you can't give me love
TTITLE5=The Drifters   Kissing in the back row of the movies
TTITLE6=Harpo   Horoscope
TTITLE7=Silver Convention    Fly, Robin Fly
TTITLE8=Village People   In the Navy
TTITLE9=The Hues Corporation   Rock the Boat
TTITLE10=Penny McLean   Lady Bump
TTITLE11=Les Humphries Singers    Mama Loo
TTITLE12=Showaddywaddy  Under the moon of Love
TTITLE13=Bonnie Tyler   It's a heartache
TTITLE14=Tony Christie   I did what I did for Maria
TTITLE15=Facio Santillan    El condor Pasa
TTITLE16=Joe Dassin   Les Champs-Elysées
TTITLE17=New World   Kara, Kara
EXTD=
EXTT0=
EXTT1=
EXTT2=
EXTT3=
EXTT4=
EXTT5=
EXTT6=
EXTT7=
EXTT8=
EXTT9=
EXTT10=
EXTT11=
EXTT12=
EXTT13=
EXTT14=
EXTT15=
EXTT16=
EXTT17=
PLAYORDER=
